<svg width="20" height="20" viewBox="0 0 20 20" fill="none" xmlns="http://www.w3.org/2000/svg">
<path d="M13.8396 9.78182L10.5367 12.7846C10.4602 12.8542 10.378 12.9076 10.2899 12.945C10.2019 12.9824 10.1053 13.0007 10 13C9.89472 12.9992 9.79807 12.9805 9.71006 12.9439C9.62204 12.9073 9.53979 12.8538 9.46329 12.7835L6.16039 9.7807C6.11515 9.73883 6.07691 9.69059 6.04565 9.636C6.01522 9.58141 6 9.52271 6 9.4599C6 9.33427 6.04524 9.22621 6.13572 9.13573C6.22784 9.04524 6.34834 9 6.49722 9L13.5015 9C13.6512 9 13.7717 9.04636 13.863 9.13909C13.9543 9.23182 14 9.3395 14 9.46214C14 9.49355 13.9465 9.59974 13.8396 9.7807" fill="currentColor"/>
</svg>
